<svg width="213" height="278" viewBox="0 0 213 278" fill="none" xmlns="http://www.w3.org/2000/svg">
<path d="M102.772 178.615C135.628 178.615 162.263 151.928 162.263 119.007C162.263 86.0861 135.628 59.3984 102.772 59.3984C69.9159 59.3984 43.2808 86.0861 43.2808 119.007C43.2808 151.928 69.9159 178.615 102.772 178.615Z" fill="#FFC1C1"/>
<path d="M183.658 195.453H25.5904V191.874H183.658C183.743 191.874 183.827 191.891 183.905 191.923C183.983 191.956 184.055 192.003 184.115 192.064C184.175 192.124 184.222 192.195 184.255 192.274C184.287 192.352 184.304 192.436 184.304 192.521V194.806C184.304 194.978 184.236 195.142 184.115 195.264C183.993 195.385 183.829 195.453 183.658 195.453Z" fill="#425AC2"/>
<path d="M26.8826 192.534H25.5776V277.37H26.8826V192.534Z" fill="#425AC2"/>
<path d="M183.658 192.534H183.645C183.288 192.534 182.999 192.824 182.999 193.181V276.723C182.999 277.08 183.288 277.37 183.645 277.37H183.658C184.015 277.37 184.304 277.08 184.304 276.723V193.181C184.304 192.824 184.015 192.534 183.658 192.534Z" fill="#425AC2"/>
<path d="M91.9631 53.6647C91.5431 54.0841 90.9743 54.3196 90.3813 54.3196C89.7883 54.3196 89.2194 54.0841 88.7994 53.6647C88.3808 53.2438 88.1458 52.6738 88.1458 52.0797C88.1458 51.4855 88.3808 50.9156 88.7994 50.4947L92.5695 46.7304C92.7746 46.5199 93.0196 46.3527 93.2901 46.2385C93.5606 46.1243 93.8512 46.0654 94.1448 46.0654C94.4383 46.0654 94.7289 46.1243 94.9995 46.2385C95.27 46.3527 95.515 46.5199 95.72 46.7304C95.9301 46.9359 96.097 47.1813 96.211 47.4524C96.325 47.7235 96.3837 48.0146 96.3837 48.3088C96.3837 48.6029 96.325 48.8941 96.211 49.1651C96.097 49.4362 95.9301 49.6817 95.72 49.8872L91.9631 53.6647Z" fill="#8EA8DD"/>
<path d="M118.631 53.6648C119.051 54.0842 119.62 54.3197 120.213 54.3197C120.806 54.3197 121.375 54.0842 121.795 53.6648C122.213 53.2439 122.449 52.6739 122.449 52.0798C122.449 51.4856 122.213 50.9157 121.795 50.4948L118.025 46.7305C117.819 46.5196 117.572 46.3521 117.301 46.2377C117.029 46.1234 116.738 46.0645 116.443 46.0645C116.148 46.0645 115.857 46.1234 115.585 46.2377C115.313 46.3521 115.067 46.5196 114.861 46.7305C114.443 47.1491 114.209 47.7168 114.209 48.3088C114.209 48.9009 114.443 49.4686 114.861 49.8872L118.631 53.6648Z" fill="#8EA8DD"/>
<path d="M94.5333 11.1873C93.8846 10.2231 93.5359 9.08773 93.5314 7.9249C93.5314 3.5662 98.6329 0 104.894 0C111.156 0 116.257 3.53979 116.257 7.9249C116.252 8.99659 115.956 10.0466 115.401 10.9628L113.727 9.97217C114.107 9.35685 114.312 8.6488 114.32 7.9249C114.32 4.6889 110.009 1.96802 104.894 1.96802C99.7797 1.96802 95.4692 4.6889 95.4692 7.9249C95.4778 8.71343 95.7211 9.48144 96.1678 10.1307L94.5333 11.1873Z" fill="#A4B8EA"/>
<path d="M116.157 9.64339L112.3 15.6689L120.033 20.6397L123.891 14.6142L116.157 9.64339Z" fill="#FFC1C1"/>
<path d="M112.87 11.0286C113.044 10.661 113.247 10.3077 113.476 9.97194C114.556 8.50594 116.167 7.52283 117.963 7.23371C119.758 6.94459 121.596 7.37252 123.08 8.42562C124.564 9.47871 125.577 11.073 125.901 12.8661C126.225 14.6591 125.834 16.508 124.813 18.0157C124.578 18.3476 124.313 18.6572 124.022 18.9403L112.87 11.0286Z" fill="#FE958E"/>
<path d="M93.7109 9.99112L85.9774 14.9619L89.8352 20.9875L97.5687 16.0167L93.7109 9.99112Z" fill="#FFC1C1"/>
<path d="M120.045 48.2091C128.293 39.9458 128.293 26.5484 120.045 18.2851C111.798 10.0218 98.4274 10.0218 90.1804 18.2851C81.9333 26.5484 81.9333 39.9458 90.1804 48.2091C98.4274 56.4724 111.798 56.4724 120.045 48.2091Z" fill="#FE958E"/>
<path d="M109.177 50.3546C118.612 48.1094 124.444 38.6257 122.203 29.1722C119.962 19.7186 110.497 13.8751 101.062 16.1203C91.6273 18.3655 85.7952 27.8491 88.036 37.3027C90.2767 46.7562 99.7418 52.5998 109.177 50.3546Z" fill="#FEE2E3"/>
<path d="M105.778 17.9237C105.78 18.0549 105.744 18.1838 105.673 18.2941C105.602 18.4045 105.5 18.4912 105.38 18.5432C105.26 18.5952 105.127 18.6102 104.998 18.5862C104.87 18.5622 104.751 18.5004 104.657 18.4086C104.564 18.3168 104.5 18.1991 104.473 18.0707C104.447 17.9422 104.459 17.8088 104.509 17.6873C104.558 17.5659 104.642 17.4619 104.751 17.3888C104.86 17.3156 104.988 17.2765 105.119 17.2765C105.205 17.2747 105.29 17.2902 105.37 17.3219C105.45 17.3537 105.523 17.4011 105.584 17.4613C105.645 17.5216 105.694 17.5936 105.727 17.673C105.761 17.7523 105.778 17.8376 105.778 17.9237Z" fill="#425AC2"/>
<path d="M98.04 19.6536C98.0846 19.7279 98.1138 19.8103 98.126 19.8961C98.1382 19.9819 98.1331 20.0693 98.111 20.153C98.0889 20.2368 98.0502 20.3152 97.9972 20.3837C97.9443 20.4522 97.8781 20.5094 97.8027 20.5518C97.6534 20.6343 97.478 20.6557 97.3133 20.6114C97.1486 20.567 97.0074 20.4605 96.9195 20.3141C96.8371 20.1644 96.8158 19.9887 96.86 19.8236C96.9043 19.6586 97.0106 19.5172 97.1568 19.4291C97.3037 19.342 97.4791 19.3167 97.6446 19.3587C97.8101 19.4008 97.9523 19.5068 98.04 19.6536Z" fill="#425AC2"/>
<path d="M92.2134 25.0163C92.2884 25.0574 92.3543 25.1133 92.4071 25.1806C92.4599 25.2479 92.4986 25.3252 92.5208 25.4079C92.5429 25.4906 92.5482 25.577 92.5361 25.6618C92.5241 25.7465 92.495 25.828 92.4507 25.9012C92.3628 26.0476 92.2217 26.1542 92.057 26.1986C91.8923 26.2429 91.7168 26.2215 91.5675 26.139C91.4939 26.0965 91.4294 26.0399 91.3777 25.9724C91.326 25.9049 91.288 25.8279 91.2659 25.7457C91.2439 25.6636 91.2383 25.5778 91.2493 25.4935C91.2603 25.4091 91.2878 25.3277 91.3302 25.254C91.3726 25.1803 91.4291 25.1157 91.4965 25.0638C91.5638 25.012 91.6406 24.974 91.7227 24.9519C91.8047 24.9298 91.8902 24.9241 91.9744 24.9352C92.0587 24.9462 92.1398 24.9738 92.2134 25.0163Z" fill="#425AC2"/>
<path d="M89.841 32.585C89.9688 32.585 90.0937 32.6229 90.1999 32.694C90.3061 32.7651 90.3889 32.8662 90.4378 32.9845C90.4867 33.1028 90.4995 33.2329 90.4746 33.3584C90.4496 33.484 90.3881 33.5993 90.2978 33.6898C90.2074 33.7803 90.0923 33.842 89.967 33.8669C89.8417 33.8919 89.7119 33.8791 89.5938 33.8301C89.4758 33.7811 89.375 33.6982 89.304 33.5917C89.233 33.4853 89.1951 33.3602 89.1951 33.2322C89.1951 33.0605 89.2632 32.8959 89.3843 32.7745C89.5054 32.6532 89.6697 32.585 89.841 32.585Z" fill="#425AC2"/>
<path d="M91.568 40.3244C91.7173 40.2418 91.8927 40.2205 92.0574 40.2648C92.2221 40.3091 92.3633 40.4157 92.4512 40.5621C92.5148 40.6731 92.5442 40.8004 92.5357 40.928C92.5271 41.0557 92.481 41.1779 92.4031 41.2793C92.3253 41.3807 92.2192 41.4568 92.0983 41.4978C91.9773 41.5388 91.8469 41.543 91.7236 41.5098C91.6003 41.4766 91.4895 41.4075 91.4054 41.3113C91.3212 41.215 91.2674 41.096 91.2508 40.9691C91.2341 40.8423 91.2554 40.7134 91.3118 40.5986C91.3683 40.4838 91.4574 40.3884 91.568 40.3244Z" fill="#425AC2"/>
<path d="M96.9195 46.1627C97.0074 46.0163 97.1485 45.9097 97.3132 45.8654C97.4779 45.8211 97.6534 45.8424 97.8027 45.925C97.953 46.0108 98.0632 46.1529 98.1089 46.3201C98.1546 46.4873 98.1322 46.6659 98.0466 46.8165C97.9609 46.9671 97.819 47.0775 97.6522 47.1233C97.4853 47.1692 97.3071 47.1467 97.1567 47.0608C97.0097 46.9703 96.903 46.8265 96.8588 46.6593C96.8147 46.4921 96.8364 46.3143 96.9195 46.1627Z" fill="#425AC2"/>
<path d="M104.473 48.5407C104.47 48.409 104.507 48.2795 104.578 48.1689C104.65 48.0583 104.752 47.9716 104.873 47.92C104.994 47.8684 105.128 47.8542 105.257 47.8792C105.386 47.9043 105.505 47.9674 105.598 48.0606C105.691 48.1537 105.754 48.2726 105.779 48.402C105.804 48.5313 105.789 48.6651 105.738 48.7863C105.686 48.9075 105.6 49.0105 105.49 49.0821C105.379 49.1536 105.25 49.1905 105.118 49.1878C104.947 49.1878 104.783 49.1197 104.662 48.9983C104.541 48.8769 104.473 48.7123 104.473 48.5407Z" fill="#425AC2"/>
<path d="M112.21 46.8231C112.166 46.7489 112.136 46.6664 112.124 46.5806C112.112 46.4948 112.117 46.4075 112.139 46.3237C112.161 46.24 112.2 46.1615 112.253 46.093C112.306 46.0245 112.372 45.9674 112.447 45.925C112.597 45.8424 112.772 45.8211 112.937 45.8654C113.102 45.9097 113.243 46.0163 113.331 46.1627C113.414 46.3143 113.435 46.4921 113.391 46.6593C113.347 46.8265 113.24 46.9703 113.093 47.0608C112.944 47.1434 112.769 47.1648 112.604 47.1204C112.439 47.0761 112.298 46.9695 112.21 46.8231Z" fill="#425AC2"/>
<path d="M118.038 41.4476C117.963 41.4065 117.897 41.3506 117.844 41.2833C117.791 41.2159 117.753 41.1386 117.731 41.0559C117.708 40.9732 117.703 40.8869 117.715 40.8021C117.727 40.7173 117.756 40.6358 117.801 40.5626C117.843 40.4889 117.9 40.4243 117.967 40.3724C118.034 40.3206 118.111 40.2826 118.193 40.2605C118.275 40.2384 118.361 40.2327 118.445 40.2438C118.529 40.2548 118.61 40.2824 118.684 40.3249C118.757 40.3674 118.822 40.424 118.874 40.4914C118.925 40.5589 118.963 40.6359 118.985 40.7181C119.007 40.8003 119.013 40.886 119.002 40.9704C118.991 41.0547 118.963 41.1361 118.921 41.2098C118.88 41.285 118.824 41.3509 118.757 41.4039C118.69 41.4568 118.613 41.4955 118.53 41.5178C118.448 41.54 118.361 41.5452 118.277 41.5332C118.192 41.5211 118.111 41.492 118.038 41.4476Z" fill="#425AC2"/>
<path d="M120.411 33.8794C120.768 33.8794 121.057 33.5896 121.057 33.2321C121.057 32.8747 120.768 32.585 120.411 32.585C120.054 32.585 119.765 32.8747 119.765 33.2321C119.765 33.5896 120.054 33.8794 120.411 33.8794Z" fill="#425AC2"/>
<path d="M118.683 26.139C118.534 26.2215 118.359 26.2429 118.194 26.1986C118.029 26.1542 117.888 26.0476 117.8 25.9012C117.715 25.7523 117.691 25.5755 117.736 25.4095C117.78 25.2436 117.889 25.1021 118.037 25.0163C118.186 24.9304 118.363 24.9073 118.528 24.9519C118.694 24.9965 118.835 25.1052 118.921 25.254C118.963 25.3277 118.991 25.4091 119.002 25.4935C119.013 25.5779 119.007 25.6636 118.985 25.7458C118.963 25.828 118.925 25.9051 118.873 25.9725C118.822 26.04 118.757 26.0966 118.683 26.139Z" fill="#425AC2"/>
<path d="M113.331 20.3014C113.243 20.4478 113.102 20.5543 112.937 20.5987C112.772 20.643 112.597 20.6217 112.447 20.5391C112.372 20.4967 112.306 20.4396 112.253 20.3711C112.2 20.3026 112.161 20.2241 112.139 20.1403C112.117 20.0566 112.112 19.9692 112.124 19.8834C112.136 19.7977 112.166 19.7152 112.21 19.641C112.298 19.4942 112.44 19.3881 112.606 19.346C112.771 19.304 112.946 19.3293 113.093 19.4164C113.239 19.5045 113.346 19.6459 113.39 19.8109C113.434 19.976 113.413 20.1518 113.331 20.3014Z" fill="#425AC2"/>
<path d="M98.0711 28.2669L97.4409 29.457L104.579 33.2519L105.209 32.0618L98.0711 28.2669Z" fill="#425AC2"/>
<path d="M115.756 26.587L105.113 32.4668L105.596 33.3459L116.24 27.4661L115.756 26.587Z" fill="#425AC2"/>
<path d="M108.204 33.2317C108.22 33.8444 108.053 34.4479 107.725 34.9656C107.398 35.4832 106.924 35.8916 106.364 36.1388C105.805 36.386 105.184 36.4609 104.582 36.3539C103.98 36.2469 103.423 35.9629 102.982 35.538C102.541 35.1131 102.236 34.5664 102.106 33.9675C101.976 33.3685 102.027 32.7444 102.252 32.1744C102.477 31.6044 102.866 31.1143 103.369 30.7663C103.873 30.4184 104.468 30.2283 105.08 30.2202C105.892 30.206 106.677 30.515 107.263 31.0794C107.848 31.6438 108.187 32.4177 108.204 33.2317Z" fill="#FE958E"/>
<path d="M97.0247 11.3198C96.8539 10.9478 96.6463 10.5938 96.4052 10.2631C95.3406 8.75859 93.7231 7.73941 91.9085 7.42978C90.094 7.12016 88.231 7.54545 86.7294 8.61212C85.2278 9.67879 84.2107 11.2995 83.9016 13.1176C83.5926 14.9357 84.0171 16.8024 85.0816 18.3069C85.3159 18.6354 85.576 18.9445 85.8594 19.2315L97.0247 11.3198Z" fill="#FE958E"/>
<path d="M3.063 90.7271C2.79227 90.8388 2.5021 90.8957 2.20929 90.8943C1.91648 90.893 1.62684 90.8335 1.35714 90.7192C1.08744 90.605 0.843039 90.4383 0.638052 90.2288C0.433066 90.0193 0.271575 89.7711 0.16293 89.4987C-0.0586812 88.9504 -0.0540605 88.3365 0.175803 87.7916C0.405667 87.2468 0.841967 86.8156 1.38886 86.5929L6.319 84.572C6.86835 84.3531 7.48156 84.3592 8.02649 84.5889C8.57143 84.8187 9.00444 85.2538 9.23225 85.8004C9.45435 86.3505 9.45008 86.9664 9.22036 87.5134C8.99064 88.0603 8.55416 88.4939 8.00632 88.7194L3.063 90.7271Z" fill="#8EA8DD"/>
<path d="M27.6473 101.109C27.7573 101.382 27.9201 101.63 28.1263 101.84C28.3325 102.05 28.5781 102.216 28.8488 102.33C29.1196 102.445 29.4102 102.504 29.704 102.505C29.9978 102.506 30.2889 102.449 30.5605 102.337C31.1084 102.112 31.5449 101.678 31.7746 101.131C32.0043 100.584 32.0086 99.9685 31.7865 99.4184L29.7696 94.4785C29.5473 93.9305 29.117 93.4934 28.5732 93.2631C28.0295 93.0327 27.4167 93.0281 26.8695 93.2502C26.5971 93.3604 26.3492 93.5235 26.14 93.7302C25.9308 93.9368 25.7644 94.1828 25.6505 94.4541C25.5365 94.7254 25.4772 95.0166 25.4761 95.311C25.4749 95.6053 25.5318 95.897 25.6436 96.1692L27.6473 101.109Z" fill="#8EA8DD"/>
<path d="M21.9121 52.5946C21.6838 51.4499 21.8032 50.2629 22.2549 49.1869C23.9422 45.2244 30.006 43.9037 35.7798 46.334C41.5536 48.7643 44.8887 54.0211 43.2013 58.0364C42.7801 59.0254 42.0962 59.8797 41.224 60.5063L40.064 58.9345C40.6445 58.514 41.1002 57.9433 41.3822 57.2835C42.7004 54.3117 39.7081 50.1115 35.002 48.1302C30.296 46.149 25.2604 46.9811 24.0213 49.953C23.7205 50.6798 23.6425 51.4798 23.7972 52.2512L21.9121 52.5946Z" fill="#A4B8EA"/>
<path d="M42.4192 59.629L36.5289 63.6807L41.7291 71.2704L47.6194 67.2187L42.4192 59.629Z" fill="#425AC2"/>
<path d="M38.8528 59.5822C39.155 59.3066 39.4815 59.059 39.8283 58.8425C40.6464 58.3235 41.5637 57.9815 42.5214 57.8386C43.4791 57.6957 44.456 57.755 45.3896 58.0126C46.3231 58.2703 47.1925 58.7206 47.9421 59.3347C48.6917 59.9488 49.3049 60.7132 49.7423 61.5787C50.1798 62.4442 50.4318 63.3918 50.4823 64.3606C50.5327 65.3295 50.3805 66.2983 50.0353 67.2047C49.6902 68.1111 49.1597 68.9353 48.478 69.6242C47.7963 70.3132 46.9783 70.8517 46.0767 71.2053L38.8528 59.5822Z" fill="#FFC1C1"/>
<path d="M21.6299 51.1406L12.5771 52.7139L13.7981 59.7674L22.8509 58.1941L21.6299 51.1406Z" fill="#425AC2"/>
<path d="M42.5827 85.2445C40.9566 89.0896 38.23 92.3657 34.7471 94.6594C31.2642 96.953 27.1812 98.1614 23.0135 98.1318C18.8458 98.1023 14.7802 96.8361 11.3301 94.4933C7.87996 92.1505 5.19992 88.836 3.62829 84.9683C2.05666 81.1005 1.66391 76.8529 2.49963 72.7617C3.33535 68.6705 5.36208 64.9191 8.32394 61.9811C11.2858 59.0431 15.05 57.0501 19.1413 56.2539C23.2327 55.4577 27.4678 55.8939 31.3119 57.5074C33.8733 58.5825 36.1976 60.1538 38.1514 62.1312C40.1052 64.1086 41.65 66.4532 42.6972 69.0303C43.7444 71.6074 44.2734 74.3664 44.2537 77.1488C44.2341 79.9313 43.6662 82.6825 42.5827 85.2445Z" fill="#FFC1C1"/>
<path d="M29.6967 93.3492C38.6855 89.703 43.0223 79.4461 39.3833 70.4397C35.7443 61.4332 25.5075 57.0878 16.5188 60.734C7.53012 64.3801 3.19329 74.6371 6.83227 83.6435C10.4712 92.65 20.708 96.9953 29.6967 93.3492Z" fill="#FEE2E3"/>
<path d="M29.6507 63.1618C29.6178 63.2407 29.5697 63.3124 29.5092 63.3727C29.4486 63.433 29.3769 63.4807 29.2979 63.5132C29.219 63.5458 29.1344 63.5623 29.049 63.5621C28.9637 63.5619 28.8792 63.5448 28.8004 63.5118C28.7217 63.4788 28.6502 63.4307 28.59 63.37C28.5298 63.3094 28.4821 63.2374 28.4497 63.1583C28.4172 63.0792 28.4007 62.9945 28.4009 62.909C28.4012 62.8235 28.4182 62.7388 28.4511 62.6599C28.5206 62.5017 28.6493 62.3771 28.8095 62.3129C28.9697 62.2487 29.1487 62.2499 29.308 62.3165C29.4649 62.3834 29.5891 62.5099 29.6533 62.6683C29.7175 62.8267 29.7166 63.0041 29.6507 63.1618Z" fill="#425AC2"/>
<path d="M21.8596 61.7488C21.8706 61.8339 21.8647 61.9204 21.8421 62.0031C21.8195 62.0859 21.7807 62.1633 21.7279 62.2309C21.6752 62.2985 21.6095 62.3549 21.5348 62.3969C21.4601 62.4388 21.3778 62.4655 21.2928 62.4753C21.1232 62.4978 20.9517 62.4521 20.8158 62.3481C20.6799 62.2441 20.5907 62.0903 20.5677 61.9205C20.5567 61.8354 20.5627 61.749 20.5853 61.6662C20.6079 61.5835 20.6467 61.506 20.6994 61.4384C20.7522 61.3708 20.8178 61.3144 20.8925 61.2725C20.9672 61.2305 21.0495 61.2039 21.1346 61.1941C21.3041 61.1716 21.4756 61.2173 21.6115 61.3213C21.7474 61.4253 21.8366 61.579 21.8596 61.7488Z" fill="#425AC2"/>
<path d="M14.3994 64.4303C14.4534 64.4971 14.4933 64.5742 14.5166 64.6569C14.54 64.7397 14.5463 64.8263 14.5352 64.9115C14.5241 64.9968 14.4958 65.0789 14.4521 65.1528C14.4083 65.2268 14.35 65.291 14.2807 65.3417C14.2125 65.3934 14.1348 65.431 14.052 65.4523C13.9692 65.4737 13.883 65.4783 13.7984 65.466C13.7138 65.4538 13.6324 65.4248 13.5591 65.3807C13.4858 65.3367 13.4219 65.2785 13.3711 65.2096C13.3199 65.1424 13.2826 65.0655 13.2615 64.9836C13.2404 64.9017 13.2358 64.8164 13.2481 64.7327C13.2604 64.649 13.2893 64.5686 13.333 64.4963C13.3768 64.4239 13.4346 64.3611 13.503 64.3115C13.5685 64.2576 13.6444 64.2179 13.7259 64.1946C13.8075 64.1714 13.8928 64.1651 13.9769 64.1763C14.0609 64.1874 14.1417 64.2157 14.2144 64.2594C14.2871 64.3031 14.35 64.3613 14.3994 64.4303Z" fill="#425AC2"/>
<path d="M9.2845 70.4799C9.44241 70.5496 9.56677 70.6785 9.63085 70.839C9.69493 70.9995 9.69363 71.1788 9.62723 71.3384C9.56038 71.4957 9.43414 71.6201 9.27607 71.6844C9.11801 71.7488 8.94095 71.7478 8.78357 71.6818C8.7047 71.6501 8.63301 71.6028 8.57279 71.5427C8.51257 71.4826 8.46505 71.411 8.43306 71.3321C8.40107 71.2532 8.38528 71.1687 8.38661 71.0835C8.38795 70.9984 8.4064 70.9144 8.44084 70.8365C8.4727 70.7575 8.51983 70.6855 8.57953 70.6247C8.63923 70.564 8.71031 70.5157 8.7887 70.4825C8.86709 70.4494 8.95125 70.4321 9.03633 70.4316C9.12141 70.4312 9.20576 70.4476 9.2845 70.4799Z" fill="#425AC2"/>
<path d="M7.87478 78.2847C7.9597 78.2736 8.04598 78.2796 8.12858 78.3022C8.21119 78.3249 8.28847 78.3637 8.35594 78.4166C8.4234 78.4694 8.47971 78.5352 8.52158 78.6101C8.56345 78.6849 8.59003 78.7674 8.5998 78.8526C8.61433 78.9794 8.59116 79.1076 8.53316 79.2212C8.47517 79.3348 8.38496 79.4287 8.27387 79.4911C8.16278 79.5535 8.03578 79.5815 7.90881 79.5718C7.78185 79.562 7.66057 79.5149 7.56025 79.4363C7.45993 79.3578 7.38503 79.2512 7.34497 79.1301C7.3049 79.009 7.30146 78.8787 7.33507 78.7557C7.36868 78.6326 7.43785 78.5222 7.53388 78.4384C7.62991 78.3546 7.7485 78.3012 7.87478 78.2847Z" fill="#425AC2"/>
<path d="M10.5497 85.7615C10.6166 85.7037 10.6945 85.6603 10.7788 85.6339C10.8631 85.6075 10.9519 85.5988 11.0397 85.6081C11.1275 85.6175 11.2124 85.6448 11.2893 85.6883C11.3661 85.7319 11.4333 85.7907 11.4865 85.8613C11.5398 85.9318 11.5781 86.0126 11.599 86.0985C11.6199 86.1845 11.6229 86.2738 11.608 86.361C11.5931 86.4482 11.5605 86.5314 11.5123 86.6055C11.464 86.6796 11.4011 86.7429 11.3274 86.7917C11.1901 86.8941 11.0184 86.939 10.8486 86.9168C10.6789 86.8946 10.5244 86.8071 10.4179 86.6728C10.3663 86.6045 10.3288 86.5266 10.3075 86.4437C10.2862 86.3607 10.2815 86.2743 10.2938 86.1896C10.306 86.1048 10.3349 86.0233 10.3789 85.9498C10.4228 85.8763 10.4809 85.8123 10.5497 85.7615Z" fill="#425AC2"/>
<path d="M16.5873 90.8861C16.619 90.8071 16.6662 90.7352 16.7262 90.6749C16.7861 90.6146 16.8576 90.5669 16.9364 90.5349C17.0151 90.5028 17.0995 90.487 17.1845 90.4884C17.2694 90.4897 17.3533 90.5082 17.431 90.5427C17.549 90.5922 17.6496 90.6756 17.7202 90.7825C17.7908 90.8894 17.8282 91.0149 17.8275 91.1431C17.8268 91.2713 17.7882 91.3964 17.7165 91.5025C17.6447 91.6087 17.5432 91.6911 17.4247 91.7393C17.3062 91.7876 17.176 91.7994 17.0508 91.7735C16.9255 91.7475 16.8107 91.6849 16.721 91.5935C16.6313 91.5021 16.5707 91.3861 16.5469 91.2601C16.5231 91.1342 16.5372 91.004 16.5873 90.8861Z" fill="#425AC2"/>
<path d="M24.3784 92.2992C24.3639 92.1724 24.3871 92.0442 24.4451 91.9306C24.5031 91.817 24.5933 91.7231 24.7044 91.6607C24.8154 91.5983 24.9424 91.5703 25.0694 91.58C25.1964 91.5897 25.3177 91.6369 25.418 91.7154C25.5183 91.794 25.5932 91.9006 25.6333 92.0217C25.6733 92.1428 25.6768 92.2731 25.6432 92.3961C25.6095 92.5192 25.5404 92.6296 25.4443 92.7134C25.3483 92.7972 25.2297 92.8506 25.1034 92.8671C25.0185 92.8782 24.9322 92.8722 24.8496 92.8496C24.767 92.8269 24.6898 92.788 24.6223 92.7352C24.5548 92.6823 24.4985 92.6165 24.4566 92.5417C24.4148 92.4668 24.3882 92.3844 24.3784 92.2992Z" fill="#425AC2"/>
<path d="M31.8266 89.6582C31.751 89.5555 31.7074 89.4326 31.7013 89.3051C31.6952 89.1776 31.7269 89.0511 31.7924 88.9416C31.8579 88.8321 31.9542 88.7444 32.0693 88.6896C32.1844 88.6348 32.3131 88.6153 32.4392 88.6336C32.5653 88.652 32.6832 88.7072 32.778 88.7925C32.8728 88.8778 32.9403 88.9892 32.9721 89.1129C33.0038 89.2365 32.9984 89.3668 32.9564 89.4873C32.9144 89.6079 32.8378 89.7133 32.7362 89.7903C32.5973 89.8913 32.4245 89.934 32.2547 89.9093C32.0848 89.8847 31.9312 89.7946 31.8266 89.6582Z" fill="#425AC2"/>
<path d="M36.9536 83.5683C36.7966 83.5011 36.6717 83.3754 36.6053 83.2177C36.5389 83.06 36.5362 82.8826 36.5977 82.723C36.6675 82.5646 36.7954 82.4392 36.9549 82.3728C37.1144 82.3064 37.2934 82.3041 37.4546 82.3664C37.6125 82.436 37.7368 82.5649 37.8009 82.7255C37.865 82.886 37.8637 83.0653 37.7973 83.2249C37.7656 83.3039 37.7184 83.3757 37.6584 83.4361C37.5985 83.4964 37.527 83.544 37.4482 83.5761C37.3695 83.6081 37.2851 83.6239 37.2001 83.6226C37.1152 83.6213 37.0313 83.6028 36.9536 83.5683Z" fill="#425AC2"/>
<path d="M38.3644 75.7636C38.2795 75.7747 38.1932 75.7687 38.1106 75.746C38.028 75.7234 37.9507 75.6845 37.8833 75.6317C37.8158 75.5788 37.7595 75.5131 37.7176 75.4382C37.6758 75.3634 37.6492 75.2809 37.6394 75.1956C37.6249 75.0689 37.6481 74.9406 37.7061 74.8271C37.7641 74.7135 37.8543 74.6196 37.9653 74.5572C38.0764 74.4949 38.2035 74.4668 38.3304 74.4765C38.4574 74.4862 38.5786 74.5333 38.679 74.6119C38.7793 74.6905 38.8542 74.7971 38.8942 74.9182C38.9343 75.0393 38.9378 75.1695 38.9041 75.2926C38.8705 75.4157 38.8014 75.5261 38.7053 75.6099C38.6093 75.6937 38.4907 75.7472 38.3644 75.7636Z" fill="#425AC2"/>
<path d="M35.6882 68.2998C35.5501 68.4032 35.3767 68.4473 35.2061 68.4226C35.0356 68.3978 34.8818 68.3062 34.7787 68.1678C34.6755 68.0294 34.6315 67.8557 34.6562 67.6847C34.6809 67.5138 34.7724 67.3598 34.9105 67.2564C35.0486 67.1531 35.222 67.1089 35.3926 67.1337C35.5631 67.1585 35.7169 67.2501 35.8201 67.3885C35.9232 67.5269 35.9672 67.7006 35.9425 67.8715C35.9178 68.0424 35.8263 68.1965 35.6882 68.2998Z" fill="#425AC2"/>
<path d="M18.5263 69.7733L17.4844 70.625L22.5928 76.8985L23.6346 76.0469L18.5263 69.7733Z" fill="#425AC2"/>
<path d="M35.4655 75.0684L23.3788 76.3477L23.4841 77.3459L35.5708 76.0666L35.4655 75.0684Z" fill="#425AC2"/>
<path d="M25.9869 78.2186C25.7629 78.7922 25.3731 79.2857 24.8672 79.6357C24.3614 79.9858 23.7627 80.1765 23.148 80.1832C22.5333 80.19 21.9306 80.0125 21.4173 79.6737C20.9039 79.3348 20.5033 78.85 20.2668 78.2814C20.0304 77.7129 19.9689 77.0864 20.0903 76.4826C20.2116 75.8788 20.5103 75.325 20.9479 74.8924C21.3855 74.4599 21.9422 74.1681 22.5464 74.0548C23.1506 73.9414 23.7749 74.0115 24.3391 74.2561C25.0725 74.5741 25.6542 75.1648 25.9615 75.9039C26.2689 76.6431 26.278 77.4729 25.9869 78.2186Z" fill="#FE958E"/>
<path d="M24.1402 53.6791C24.1265 53.2743 24.0735 52.8717 23.982 52.4772C23.7864 51.5856 23.4174 50.7414 22.8962 49.9927C22.375 49.2441 21.7117 48.6056 20.9442 48.1138C20.1767 47.6219 19.32 47.2864 18.4231 47.1263C17.5262 46.9662 16.6066 46.9847 15.7168 47.1807C14.827 47.3767 13.9844 47.7464 13.2372 48.2686C12.49 48.7909 11.8528 49.4555 11.362 50.2245C10.8711 50.9935 10.5362 51.8518 10.3765 52.7505C10.2167 53.6492 10.2351 54.5706 10.4307 55.4622C10.5137 55.8655 10.6373 56.2594 10.7998 56.6377L24.1402 53.6791Z" fill="#FFC1C1"/>
<path d="M205.568 90.7271C205.839 90.8391 206.13 90.8961 206.424 90.8949C206.718 90.8937 207.009 90.8343 207.279 90.7202C207.55 90.606 207.796 90.4393 208.002 90.2297C208.208 90.0201 208.371 89.7716 208.481 89.4987C208.703 88.9505 208.698 88.3365 208.468 87.7916C208.238 87.2468 207.802 86.8157 207.255 86.5929L202.325 84.5721C201.776 84.3495 201.161 84.3538 200.615 84.584C200.069 84.8142 199.637 85.2515 199.412 85.8004C199.3 86.0726 199.243 86.3643 199.244 86.6586C199.245 86.953 199.304 87.2442 199.418 87.5155C199.532 87.7868 199.699 88.0328 199.908 88.2395C200.117 88.4461 200.365 88.6092 200.637 88.7194L205.568 90.7271Z" fill="#8EA8DD"/>
<path d="M180.996 101.11C180.771 101.659 180.338 102.096 179.792 102.326C179.246 102.556 178.631 102.561 178.082 102.338C177.81 102.228 177.562 102.065 177.353 101.858C177.144 101.651 176.977 101.405 176.863 101.134C176.749 100.863 176.69 100.572 176.689 100.277C176.688 99.9829 176.745 99.6912 176.856 99.419L178.86 94.4791C179.085 93.9302 179.518 93.4929 180.064 93.2627C180.61 93.0325 181.224 93.0282 181.773 93.2508C182.046 93.361 182.294 93.5241 182.503 93.7308C182.712 93.9374 182.879 94.1834 182.992 94.4547C183.106 94.726 183.166 95.0172 183.167 95.3116C183.168 95.6059 183.111 95.8976 182.999 96.1698L180.996 101.11Z" fill="#8EA8DD"/>
<path d="M186.729 52.5946C186.951 51.4496 186.832 50.2645 186.387 49.1869C184.699 45.2244 178.635 43.9037 172.848 46.334C167.062 48.7643 163.753 54.0211 165.44 58.0364C165.861 59.0254 166.545 59.8797 167.417 60.5063L168.564 58.9345C167.984 58.514 167.528 57.9433 167.246 57.2835C165.994 54.3117 168.92 50.1115 173.626 48.1302C178.332 46.149 183.355 46.9811 184.607 49.953C184.908 50.6798 184.986 51.4798 184.831 52.2512L186.729 52.5946Z" fill="#A4B8EA"/>
<path d="M166.204 59.6017L161.004 67.1914L166.894 71.2431L172.094 63.6534L166.204 59.6017Z" fill="#FE958E"/>
<path d="M169.79 59.5822C169.485 59.3097 169.159 59.0623 168.815 58.8425C167.997 58.3235 167.079 57.9815 166.122 57.8386C165.164 57.6957 164.187 57.755 163.253 58.0126C162.32 58.2703 161.45 58.7206 160.701 59.3347C159.951 59.9488 159.338 60.7132 158.901 61.5787C158.463 62.4442 158.211 63.3918 158.161 64.3606C158.11 65.3295 158.262 66.2983 158.608 67.2047C158.953 68.1111 159.483 68.9353 160.165 69.6242C160.847 70.3132 161.665 70.8517 162.566 71.2053L169.79 59.5822Z" fill="#425AC2"/>
<path d="M188.202 48.5593L186.988 55.6465L196.084 57.2115L197.298 50.1243L188.202 48.5593Z" fill="#FE958E"/>
<path d="M193.416 96.6694C204.232 92.2974 209.463 79.9677 205.1 69.1303C200.736 58.2929 188.431 53.0516 177.615 57.4236C166.799 61.7956 161.568 74.1253 165.931 84.9627C170.295 95.8001 182.6 101.041 193.416 96.6694Z" fill="#425AC2"/>
<path d="M169.343 83.8581C170.692 87.0642 172.96 89.7974 175.86 91.7121C178.759 93.6267 182.161 94.6369 185.633 94.6149C189.106 94.5929 192.494 93.5397 195.369 91.5884C198.244 89.6371 200.477 86.8754 201.786 83.6525C203.095 80.4296 203.42 76.8902 202.722 73.4819C202.023 70.0736 200.331 66.9494 197.86 64.5044C195.389 62.0594 192.251 60.4034 188.841 59.7458C185.431 59.0882 181.902 59.4585 178.702 60.8099C176.577 61.7073 174.65 63.0154 173.029 64.6594C171.409 66.3035 170.127 68.2512 169.258 70.3915C168.389 72.5318 167.949 74.8227 167.964 77.1333C167.978 79.4439 168.447 81.729 169.343 83.8581Z" fill="#FEE2E3"/>
<path d="M178.992 63.1622C179.059 63.3196 179.184 63.4448 179.342 63.5113C179.499 63.5778 179.676 63.5805 179.835 63.5188C179.914 63.4859 179.986 63.4377 180.046 63.3771C180.106 63.3164 180.154 63.2445 180.186 63.1654C180.219 63.0862 180.235 63.0015 180.235 62.916C180.235 62.8304 180.218 62.7458 180.185 62.6669C180.152 62.588 180.104 62.5163 180.043 62.456C179.983 62.3957 179.911 62.348 179.832 62.3155C179.753 62.283 179.668 62.2664 179.583 62.2666C179.498 62.2668 179.413 62.2839 179.334 62.3169C179.177 62.3839 179.053 62.5103 178.989 62.6687C178.925 62.8271 178.926 63.0045 178.992 63.1622Z" fill="#425AC2"/>
<path d="M186.809 61.7493C186.798 61.8344 186.804 61.9208 186.826 62.0036C186.849 62.0863 186.888 62.1638 186.94 62.2314C186.993 62.299 187.059 62.3554 187.133 62.3974C187.208 62.4393 187.29 62.466 187.376 62.4758C187.461 62.4907 187.549 62.4881 187.634 62.4681C187.719 62.4481 187.799 62.411 187.869 62.3591C187.94 62.3073 187.999 62.2418 188.043 62.1665C188.087 62.0912 188.116 62.0077 188.127 61.921C188.138 61.8359 188.132 61.7495 188.109 61.6667C188.087 61.5839 188.048 61.5065 187.995 61.4389C187.942 61.3713 187.877 61.3149 187.802 61.2729C187.727 61.231 187.645 61.2043 187.56 61.1946C187.474 61.1776 187.385 61.1787 187.3 61.1979C187.214 61.2172 187.133 61.254 187.063 61.3062C186.992 61.3584 186.933 61.4247 186.889 61.501C186.845 61.5773 186.818 61.6618 186.809 61.7493Z" fill="#425AC2"/>
<path d="M194.23 64.4295C194.127 64.5679 194.083 64.7416 194.108 64.9125C194.133 65.0835 194.224 65.2375 194.362 65.3409C194.5 65.4442 194.674 65.4883 194.844 65.4636C195.015 65.4388 195.169 65.3471 195.272 65.2088C195.375 65.0704 195.419 64.8967 195.394 64.7258C195.37 64.5548 195.278 64.4007 195.14 64.2974C195.072 64.2462 194.994 64.2091 194.911 64.188C194.828 64.167 194.742 64.1624 194.658 64.1747C194.487 64.1995 194.334 64.2911 194.23 64.4295Z" fill="#425AC2"/>
<path d="M199.358 70.4799C199.198 70.5465 199.072 70.6736 199.007 70.8334C198.941 70.9931 198.942 71.1724 199.008 71.3318C199.075 71.4912 199.202 71.6176 199.361 71.6833C199.52 71.7489 199.699 71.7484 199.858 71.6818C199.937 71.6501 200.009 71.6028 200.069 71.5427C200.129 71.4826 200.177 71.411 200.209 71.3321C200.241 71.2532 200.257 71.1687 200.255 71.0835C200.254 70.9984 200.236 70.9144 200.201 70.8365C200.169 70.7575 200.122 70.6855 200.062 70.6247C200.003 70.564 199.932 70.5157 199.853 70.4825C199.775 70.4494 199.691 70.4321 199.606 70.4316C199.521 70.4312 199.436 70.4476 199.358 70.4799Z" fill="#425AC2"/>
<path d="M200.768 78.2847C200.683 78.2736 200.597 78.2796 200.514 78.3022C200.432 78.3249 200.355 78.3637 200.287 78.4166C200.22 78.4694 200.163 78.5352 200.121 78.6101C200.08 78.6849 200.053 78.7674 200.043 78.8526C200.024 79.0239 200.073 79.1957 200.179 79.3314C200.285 79.4671 200.44 79.556 200.61 79.5791C200.779 79.5977 200.949 79.5484 201.083 79.442C201.216 79.3356 201.302 79.1808 201.322 79.0111C201.344 78.8413 201.299 78.6694 201.195 78.5332C201.091 78.3971 200.938 78.3077 200.768 78.2847Z" fill="#425AC2"/>
<path d="M198.092 85.7615C198.025 85.7037 197.947 85.6603 197.863 85.6339C197.779 85.6075 197.69 85.5988 197.602 85.6081C197.514 85.6175 197.429 85.6448 197.353 85.6883C197.276 85.7319 197.209 85.7907 197.155 85.8613C197.102 85.9318 197.064 86.0126 197.043 86.0985C197.022 86.1845 197.019 86.2738 197.034 86.361C197.049 86.4482 197.081 86.5314 197.13 86.6055C197.178 86.6796 197.241 86.7429 197.314 86.7917C197.452 86.8941 197.624 86.939 197.793 86.9168C197.963 86.8946 198.118 86.8071 198.224 86.6728C198.276 86.6045 198.313 86.5266 198.334 86.4437C198.356 86.3607 198.36 86.2743 198.348 86.1896C198.336 86.1048 198.307 86.0233 198.263 85.9498C198.219 85.8763 198.161 85.8123 198.092 85.7615Z" fill="#425AC2"/>
<path d="M192.082 90.8864C192.013 90.7282 191.884 90.6036 191.724 90.5394C191.563 90.4752 191.385 90.4765 191.225 90.543C191.068 90.61 190.944 90.7365 190.88 90.8949C190.816 91.0533 190.817 91.2307 190.883 91.3883C190.952 91.5466 191.081 91.6712 191.241 91.7354C191.401 91.7996 191.58 91.7983 191.739 91.7318C191.896 91.6648 192.02 91.5383 192.085 91.3799C192.149 91.2215 192.148 91.0441 192.082 90.8864Z" fill="#425AC2"/>
<path d="M184.265 92.2992C184.28 92.1724 184.257 92.0442 184.199 91.9306C184.141 91.817 184.051 91.7231 183.939 91.6607C183.828 91.5983 183.701 91.5703 183.574 91.58C183.447 91.5897 183.326 91.6369 183.226 91.7154C183.126 91.794 183.051 91.9006 183.011 92.0217C182.97 92.1428 182.967 92.2731 183.001 92.3961C183.034 92.5192 183.103 92.6296 183.199 92.7134C183.295 92.7972 183.414 92.8506 183.54 92.8671C183.711 92.8859 183.883 92.837 184.018 92.7309C184.154 92.6248 184.242 92.4699 184.265 92.2992Z" fill="#425AC2"/>
<path d="M176.803 89.657C176.856 89.5895 176.894 89.5123 176.916 89.4298C176.939 89.3474 176.945 89.2613 176.934 89.1766C176.922 89.0919 176.895 89.0101 176.852 88.9362C176.809 88.8622 176.752 88.7975 176.685 88.7456C176.616 88.6945 176.539 88.6573 176.456 88.6362C176.373 88.6152 176.287 88.6107 176.203 88.6229C176.032 88.6477 175.878 88.7394 175.775 88.8777C175.672 89.0161 175.628 89.1898 175.653 89.3607C175.677 89.5317 175.769 89.6858 175.907 89.7891C175.974 89.8404 176.051 89.8778 176.132 89.8989C176.214 89.9201 176.299 89.9247 176.383 89.9124C176.466 89.9001 176.547 89.8711 176.619 89.8273C176.691 89.7834 176.754 89.7255 176.803 89.657Z" fill="#425AC2"/>
<path d="M171.689 83.569C171.768 83.5373 171.839 83.4899 171.9 83.4298C171.96 83.3697 172.007 83.2981 172.039 83.2192C172.071 83.1403 172.087 83.0558 172.086 82.9706C172.084 82.8855 172.066 82.8015 172.031 82.7236C172.003 82.6389 171.958 82.5609 171.898 82.4945C171.839 82.4281 171.766 82.3748 171.685 82.338C171.604 82.3011 171.516 82.2815 171.427 82.2803C171.338 82.2792 171.249 82.2965 171.167 82.3312C171.085 82.366 171.011 82.4173 170.95 82.4822C170.888 82.547 170.841 82.6238 170.811 82.7078C170.781 82.7918 170.768 82.8811 170.774 82.9702C170.78 83.0593 170.804 83.1463 170.845 83.2256C170.877 83.3046 170.924 83.3764 170.984 83.4367C171.044 83.4971 171.115 83.5447 171.194 83.5768C171.273 83.6088 171.357 83.6246 171.442 83.6233C171.527 83.6219 171.611 83.6035 171.689 83.569Z" fill="#425AC2"/>
<path d="M170.279 75.7626C170.364 75.7736 170.45 75.7676 170.532 75.745C170.615 75.7223 170.692 75.6835 170.76 75.6306C170.827 75.5778 170.884 75.512 170.925 75.4372C170.967 75.3623 170.994 75.2798 171.004 75.1946C171.014 75.1079 171.007 75.02 170.984 74.9358C170.96 74.8517 170.92 74.7731 170.867 74.7044C170.813 74.6357 170.746 74.5784 170.67 74.5355C170.594 74.4927 170.51 74.4653 170.424 74.4549C170.337 74.4445 170.249 74.4513 170.165 74.4749C170.081 74.4985 170.003 74.5384 169.934 74.5923C169.866 74.6463 169.809 74.7133 169.766 74.7894C169.723 74.8655 169.696 74.9494 169.686 75.0361C169.675 75.1232 169.681 75.2117 169.706 75.296C169.73 75.3804 169.771 75.459 169.826 75.527C169.882 75.5949 169.951 75.6508 170.028 75.6913C170.106 75.7318 170.191 75.7561 170.279 75.7626Z" fill="#425AC2"/>
<path d="M172.954 68.2999C173.057 68.3757 173.18 68.4194 173.307 68.4255C173.434 68.4316 173.56 68.3998 173.67 68.3342C173.779 68.2686 173.866 68.1721 173.921 68.0568C173.976 67.9415 173.995 67.8126 173.977 67.6862C173.959 67.5599 173.904 67.4417 173.818 67.3467C173.733 67.2517 173.622 67.1841 173.499 67.1522C173.375 67.1204 173.245 67.1259 173.125 67.168C173.005 67.21 172.899 67.2868 172.823 67.3886C172.722 67.5278 172.679 67.7009 172.704 67.8711C172.728 68.0413 172.818 68.1951 172.954 68.2999Z" fill="#425AC2"/>
<path d="M190.088 69.707L184.979 75.9805L186.021 76.8321L191.129 70.5586L190.088 69.707Z" fill="#425AC2"/>
<path d="M173.138 75.0291L173.033 76.0273L185.12 77.3066L185.225 76.3083L173.138 75.0291Z" fill="#425AC2"/>
<path d="M182.683 78.2186C182.907 78.7922 183.297 79.2857 183.803 79.6357C184.309 79.9858 184.908 80.1765 185.522 80.1832C186.137 80.19 186.74 80.0125 187.253 79.6737C187.766 79.3348 188.167 78.85 188.403 78.2814C188.64 77.7129 188.701 77.0864 188.58 76.4826C188.459 75.8788 188.16 75.325 187.722 74.8924C187.285 74.4599 186.728 74.1681 186.124 74.0548C185.52 73.9414 184.895 74.0115 184.331 74.2561C183.598 74.5741 183.016 75.1648 182.709 75.9039C182.401 76.6431 182.392 77.4729 182.683 78.2186Z" fill="#FE958E"/>
<path d="M184.502 53.6791C184.516 53.2743 184.569 52.8718 184.66 52.4772C185.055 50.6766 186.148 49.1071 187.698 48.1138C189.248 47.1205 191.128 46.7849 192.925 47.1807C194.722 47.5765 196.289 48.6714 197.28 50.2245C198.272 51.7776 198.606 53.6617 198.211 55.4622C198.122 55.864 197.999 56.2573 197.842 56.6378L184.502 53.6791Z" fill="#425AC2"/>
<path d="M124.246 183.817H83.157L84.2512 271.771H92.0945C92.0945 271.771 98.0397 227.523 100.267 203.088H105.712L107.346 271.771H115.256C115.256 271.771 124.483 202.784 124.259 189.484C124.358 187.596 124.354 185.704 124.246 183.817Z" fill="#A4B8EA"/>
<path d="M124.247 183.818H83.1579L78.0169 129.123C77.5687 124.672 81.8661 120.842 87.3367 120.842H120.055C125.525 120.842 129.836 124.672 129.375 129.123L124.247 183.818Z" fill="#425AC2"/>
<path d="M101.744 130.907C101.865 131.218 102.073 131.488 102.344 131.682C102.615 131.876 102.937 131.987 103.269 132.001C103.602 132.015 103.932 131.932 104.218 131.761C104.505 131.59 104.735 131.339 104.881 131.039C106.714 127.288 110.734 121.675 110.734 120.473V112.403C110.734 110.567 108.005 110.725 106.397 110.725H101.124C99.5161 110.725 96.7874 112.204 96.7874 114.04V120.473C96.8401 121.661 100.294 127.156 101.744 130.907Z" fill="#E98896"/>
<path d="M97.9483 115.729C103.379 120.749 108.151 119.124 111.895 112.744C116.338 105.163 117.853 96.8947 112.422 91.9284C111.227 90.7354 109.798 89.8024 108.226 89.1876C106.654 88.5727 104.973 88.2893 103.286 88.355C101.6 88.4207 99.9458 88.8341 98.4262 89.5694C96.9067 90.3047 95.5548 91.346 94.4551 92.6284C89.459 98.0702 92.5173 110.79 97.9483 115.729Z" fill="#FFA6AD"/>
<path d="M95.1263 135.147L65.73 147.272C64.3837 147.825 62.903 147.96 61.479 147.661C60.055 147.362 58.7532 146.642 57.7416 145.595L31.3773 118.386L36.492 112.574L62.1181 132.083C62.1181 132.083 77.5149 122.837 83.6841 121.212C86.4392 120.499 93.2808 127.922 93.2808 127.922L95.1263 135.147Z" fill="#425AC2"/>
<path d="M84.1323 271.651H92.1208V277.78H75.9331C74.8653 277.78 74.4962 275.376 75.4321 274.861L84.1323 271.651Z" fill="#112256"/>
<path d="M115.361 271.651H107.385V277.78H123.534C124.601 277.78 124.971 275.376 124.035 274.861L115.361 271.651Z" fill="#112256"/>
<mask id="mask0_439_3783" style="mask-type:alpha" maskUnits="userSpaceOnUse" x="83" y="183" width="42" height="89">
<path d="M124.246 183.818H83.1573L84.2514 271.772H92.0948C92.0948 271.772 98.04 227.524 100.268 203.089H105.712L107.347 271.772H115.256C115.256 271.772 124.483 202.785 124.259 189.485C124.359 187.597 124.354 185.705 124.246 183.818Z" fill="#A4B8EA"/>
</mask>
<g mask="url(#mask0_439_3783)">
<path d="M87.929 174.388H86.2417V281.189H87.929V174.388Z" fill="#03053F"/>
<path d="M92.569 174.388H90.8817V281.189H92.569V174.388Z" fill="#03053F"/>
<path d="M97.2094 174.388H95.5221V281.189H97.2094V174.388Z" fill="#03053F"/>
<path d="M101.862 174.388H100.175V281.189H101.862V174.388Z" fill="#03053F"/>
<path d="M106.503 174.388H104.815V281.189H106.503V174.388Z" fill="#03053F"/>
<path d="M111.143 174.388H109.456V281.189H111.143V174.388Z" fill="#03053F"/>
<path d="M115.796 174.388H114.109V281.189H115.796V174.388Z" fill="#03053F"/>
<path d="M120.436 174.388H118.749V281.189H120.436V174.388Z" fill="#03053F"/>
</g>
<path d="M124.273 183.817H83.1443V186.736H124.273V183.817Z" fill="#FFC1C1"/>
<path d="M36.532 112.573C36.532 112.573 37.9425 105.968 36.3475 105.968C34.7524 105.968 34.2251 109.865 33.5397 110.076C32.0105 110.552 29.9541 108.372 27.6604 106.431C25.3667 104.489 21.5834 104.78 21.7416 106.787C22.0316 110.671 31.4173 118.424 31.4173 118.424L36.532 112.573Z" fill="#E98896"/>
<path d="M111.881 135.147L141.277 147.272C142.623 147.825 144.104 147.96 145.528 147.661C146.952 147.362 148.254 146.642 149.265 145.595L175.63 118.386L170.515 112.574L144.889 132.083C144.889 132.083 129.492 122.837 123.336 121.212C120.568 120.499 113.739 127.922 113.739 127.922L111.881 135.147Z" fill="#425AC2"/>
<path d="M170.475 112.573C170.475 112.573 169.078 105.968 170.66 105.968C172.242 105.968 172.782 109.865 173.481 110.076C174.997 110.552 177.053 108.372 179.347 106.431C181.641 104.489 185.424 104.78 185.279 106.787C184.976 110.671 175.59 118.424 175.59 118.424L170.475 112.573Z" fill="#E98896"/>
<path d="M50.5842 182.762C50.5842 183.807 50.8934 184.828 51.4728 185.697C52.0522 186.566 52.8757 187.243 53.8392 187.643C54.8027 188.043 55.8629 188.147 56.8857 187.944C57.9086 187.74 58.8481 187.236 59.5855 186.498C60.3229 185.759 60.8251 184.817 61.0286 183.793C61.232 182.768 61.1276 181.705 60.7285 180.74C60.3295 179.775 59.6536 178.949 58.7865 178.369C57.9194 177.788 56.8999 177.479 55.857 177.479C54.4586 177.479 53.1174 178.035 52.1286 179.026C51.1397 180.017 50.5842 181.361 50.5842 182.762ZM52.4824 182.762C52.4798 182.082 52.6786 181.417 53.0536 180.85C53.4286 180.284 53.963 179.842 54.589 179.58C55.2151 179.318 55.9046 179.248 56.5703 179.379C57.236 179.51 57.8479 179.836 58.3286 180.316C58.8092 180.795 59.137 181.407 59.2703 182.074C59.4036 182.74 59.3365 183.431 59.0775 184.06C58.8185 184.688 58.3792 185.225 57.8153 185.603C57.2513 185.981 56.5882 186.183 55.9098 186.183C55.0031 186.183 54.1333 185.823 53.4909 185.182C52.8485 184.54 52.4859 183.67 52.4824 182.762Z" fill="#FE958E"/>
<path d="M57.1622 172.736H39.5377L42.8991 192.073H53.8008L57.1622 172.736Z" fill="#FE958E"/>
<path d="M140.011 188.15H178.517L183.789 164.27H145.297L140.011 188.15Z" fill="#BBBBBB"/>
<path d="M178.544 187.991H130.587V192.059H178.544V187.991Z" fill="#BBBBBB"/>
<path d="M160.128 169.831C160.128 170.332 160.277 170.823 160.555 171.24C160.833 171.657 161.228 171.982 161.691 172.174C162.153 172.366 162.662 172.416 163.153 172.318C163.644 172.22 164.095 171.979 164.449 171.624C164.803 171.269 165.044 170.818 165.141 170.326C165.239 169.834 165.189 169.324 164.997 168.86C164.806 168.397 164.482 168.001 164.065 167.722C163.649 167.444 163.16 167.295 162.659 167.295C162.327 167.295 161.998 167.361 161.691 167.488C161.384 167.615 161.104 167.802 160.869 168.038C160.634 168.273 160.448 168.553 160.321 168.86C160.194 169.168 160.128 169.498 160.128 169.831Z" fill="#4E687F"/>
<path d="M97.9483 115.729C103.379 120.749 108.151 119.124 111.895 112.744C116.338 105.163 117.853 96.8947 112.422 91.9284C111.227 90.7354 109.798 89.8024 108.226 89.1876C106.654 88.5727 104.973 88.2893 103.286 88.355C101.6 88.4207 99.9458 88.8341 98.4262 89.5694C96.9067 90.3047 95.5548 91.346 94.4551 92.6284C89.459 98.0702 92.5173 110.79 97.9483 115.729Z" fill="#E98896"/>
<path d="M92.2534 111.067C91.1988 108.241 91.4361 102.099 94.6393 102.693C97.0121 103.129 94.8107 106.392 96.9199 106.748C99.029 107.105 94.7184 96.9609 100.097 94.3985C105.211 91.955 110.643 93.4211 111.012 99.6818C111.328 105.322 109.245 107.435 111.012 107.435C112.778 107.435 111.012 103.552 114.175 103.908C117.339 104.265 117.352 112.031 119.105 112.031C120.859 112.031 119.817 87.3322 119.817 87.3322L94.4548 83.0527L87.7714 97.1723L92.2534 111.067Z" fill="#425AC2"/>
</svg>
